<svg width="65" height="65" viewBox="0 0 65 65" fill="none" xmlns="http://www.w3.org/2000/svg">
<path d="M30.9164 14.5544H36.7267V41.1848C33.7505 41.7478 31.5596 41.9693 29.1891 41.9693C22.0926 41.9618 18.3986 38.7915 18.3986 32.7026C18.3986 26.836 22.3169 23.0285 28.3889 23.0285C29.3312 23.0285 30.049 23.1027 30.9164 23.3248V14.5544ZM31.12 28.1239C30.4395 27.9016 29.8787 27.8276 29.1608 27.8276C26.2221 27.8276 24.5246 29.6201 24.5246 32.7616C24.5246 35.8202 26.1474 37.509 29.1235 37.509C29.7665 37.509 30.29 37.4728 31.12 37.3617V28.1239V28.1239Z" fill="#2BA977"/>
<path d="M46.2281 23.7435V37.0769C46.2281 41.6687 45.8841 43.8769 44.8746 45.7806C43.9324 47.6109 42.6911 48.7651 40.1262 50.0398L34.7347 47.4991C37.2996 46.3072 38.5409 45.2539 39.3336 43.6465C40.1635 42.0029 40.4253 40.0991 40.4253 35.0917V23.7436H46.2281V23.7435ZM39.8397 14.5544H45.65V20.4582H39.8397V14.5544Z" fill="#2BA977"/>
</svg>
