<svg width="64" height="64" viewBox="0 0 64 64" fill="none" xmlns="http://www.w3.org/2000/svg">
<g id="Type=Default" clip-path="url(#clip0_335_250)">
<path id="Shape" fill-rule="evenodd" clip-rule="evenodd" d="M0.75 0.75H63.25V63.25H0.75V0.75V0.75Z" fill="#F7DF1E"/>
<path id="Shape_2" fill-rule="evenodd" clip-rule="evenodd" d="M17.1837 52.9796L21.9666 50.085C22.8893 51.721 23.7287 53.1052 25.7421 53.1052C27.6721 53.1052 28.8889 52.3503 28.8889 49.4138V29.4435H34.7623V49.4968C34.7623 55.5801 31.1964 58.3491 25.9939 58.3491C21.2954 58.3491 18.568 55.9157 17.1836 52.9791" fill="black"/>
<path id="Shape_3" fill-rule="evenodd" clip-rule="evenodd" d="M37.9521 52.3502L42.7345 49.5812C43.9934 51.6372 45.6296 53.1474 48.5243 53.1474C50.9579 53.1474 52.5098 51.9306 52.5098 50.2525C52.5098 48.2387 50.9156 47.5254 48.2305 46.3511L46.7626 45.7213C42.525 43.9176 39.714 41.6522 39.714 36.8693C39.714 32.4642 43.0702 29.1077 48.3146 29.1077C52.0486 29.1077 54.7336 30.4084 56.6633 33.8067L52.0902 36.7433C51.0833 34.9395 49.9928 34.2264 48.3147 34.2264C46.5946 34.2264 45.5037 35.3172 45.5037 36.7433C45.5037 38.5054 46.5946 39.2188 49.1116 40.3097L50.5798 40.939C55.5724 43.0788 58.3834 45.2601 58.3834 50.1685C58.3834 55.455 54.23 58.3496 48.6503 58.3496C43.1963 58.3496 39.6721 55.7486 37.9522 52.3502" fill="black"/>
</g>
<defs>
<clipPath id="clip0_335_250">
<rect width="64" height="64" fill="white"/>
</clipPath>
</defs>
</svg>
