<svg width="32" height="32" viewBox="0 0 32 32" fill="none" xmlns="http://www.w3.org/2000/svg">
<path d="M16 10C14.3431 10 13 8.65685 13 7C13 5.34315 14.3431 4 16 4C17.6569 4 19 5.34315 19 7C19 8.65685 17.6569 10 16 10Z" fill="#FF8484"/>
<path d="M8 16C6.34315 16 5 14.6569 5 13C5 11.3431 6.34315 10 8 10C9.65685 10 11 11.3431 11 13C11 14.6569 9.65685 16 8 16Z" fill="#FF8484"/>
<path d="M21 14C21 15.6569 22.3431 17 24 17C25.6569 17 27 15.6569 27 14C27 12.3431 25.6569 11 24 11C22.3431 11 21 12.3431 21 14Z" fill="#FF8484"/>
<path d="M20 26C18.3431 26 17 24.6569 17 23C17 21.3431 18.3431 20 20 20C21.6569 20 23 21.3431 23 23C23 24.6569 21.6569 26 20 26Z" fill="#FF8484"/>
<path d="M0 16C0 22.3011 3.73283 21.17 7.13345 20.1395C9.16085 19.5251 11.0702 18.9465 12 20C13.2055 21.3658 12.9498 23.6373 12.702 25.8387C12.3472 28.9912 12.0085 32 16 32C24.8366 32 32 24.8366 32 16C32 7.16344 24.8366 0 16 0C7.16344 0 0 7.16344 0 16ZM16 30C14.7779 30 14.6928 29.6572 14.6904 29.6476C14.5343 29.3562 14.4423 28.7191 14.5506 27.4105C14.5784 27.074 14.6236 26.6681 14.6726 26.2274C14.7758 25.2997 14.8961 24.2177 14.9084 23.3031C14.9273 21.8909 14.7415 20.0837 13.4995 18.6765C12.763 17.8421 11.8101 17.5198 10.9567 17.4396C10.1477 17.3636 9.33117 17.4922 8.63698 17.648C7.95063 17.8019 7.23221 18.0197 6.58648 18.2154L6.52913 18.2328C5.83837 18.4421 5.21508 18.6295 4.62411 18.7635C3.31803 19.0597 2.81626 18.9298 2.64143 18.8121C2.56521 18.7609 2 18.3223 2 16C2 8.26801 8.26801 2 16 2C23.732 2 30 8.26801 30 16C30 23.732 23.732 30 16 30Z" fill="#FF8484"/>
</svg>
